<?xml version="1.0" encoding="iso-8859-1"?>
<!-- Uploaded to: SVG Repo, www.svgrepo.com, Generator: SVG Repo Mixer Tools -->
<svg fill="#000000" version="1.1" id="Layer_1" xmlns="http://www.w3.org/2000/svg" xmlns:xlink="http://www.w3.org/1999/xlink" 
	 viewBox="0 0 512 512" xml:space="preserve">
<g>
	<g>
		<path d="M256,285.696c-21.608,0-39.184,17.575-39.184,39.184c0,21.608,17.575,39.184,39.184,39.184s39.184-17.575,39.184-39.184
			C295.184,303.271,277.608,285.696,256,285.696z M269.584,338.463h-27.167v-27.167h27.167V338.463z"/>
	</g>
</g>
<g>
	<g>
		<rect y="68.88" width="512" height="67.574"/>
	</g>
</g>
<g>
	<g>
		<rect x="41.535" y="168.041" width="428.931" height="32.935"/>
	</g>
</g>
<g>
	<g>
		<path d="M41.535,232.323v1.546h0.063C44.377,349.727,139.483,443.12,256,443.12s211.623-93.393,214.403-209.251h0.063v-1.546
			H41.535z M256,395.41c-38.891,0-70.531-31.64-70.531-70.531c0-38.891,31.639-70.531,70.531-70.531s70.531,31.64,70.531,70.531
			C326.531,363.771,294.891,395.41,256,395.41z"/>
	</g>
</g>
</svg>