<svg xmlns="http://www.w3.org/2000/svg" version="1.1" xmlns:xlink="http://www.w3.org/1999/xlink" xmlns:svgjs="http://svgjs.com/svgjs" width="1420" height="1000" preserveAspectRatio="none" viewBox="0 0 1420 1000"><g mask="url(&quot;#SvgjsMask1032&quot;)" fill="none"><path d="M0 6.85C67.41 -22.04 143.73 145.02 250 142.86C312.59 141.59 274.2 36.3 337.72 0C399.2 -35.13 418.86 0 500 0C625 0 625 0 750 0C780.31 0 782.07 -8.92 810.61 0C907.07 30.15 911.18 78.13 1000 78.13C1053.23 78.13 1039.51 17.25 1094.7 0C1164.51 -21.82 1172.35 0 1250 0C1326.49 0 1341.17 -30.33 1402.99 0C1466.17 30.99 1473.27 53.75 1500 122.64C1521.77 178.75 1500 186.32 1500 250C1500 355.47 1555.31 434.24 1500 460.94C1430.31 494.58 1359.43 358.72 1250 370.69C1180.86 378.25 1142.86 435.35 1142.86 500C1142.86 564.65 1181.78 624.89 1250 629.31C1360.35 636.46 1431.89 490.27 1500 523.15C1556.89 550.61 1500 636.58 1500 750C1500 865.57 1518.74 878.07 1500 981.13C1496.01 1003.07 1478.79 998.17 1454.55 1000C1353.79 1007.61 1352.28 1000 1250 1000C1125 1000 1125 1000 1000 1000C875 1000 875 1000 750 1000C641.44 1000 634.9 1014.78 532.89 1000C509.9 996.67 523.12 967.92 500 963.77C381.68 942.56 374.94 957.46 250 949.28C124.94 941.09 72.58 988.89 0 931.03C-52.42 889.25 0 840.51 0 750C0 625 0 625 0 500C0 375 0 375 0 250C0 128.43 -57.59 31.53 0 6.85" stroke="rgba(1, 2, 14, 1)" stroke-width="2"></path><path d="M750 181.82C739.8 181.82 749.7 226.22 723.21 250C624.7 338.44 605.27 320.93 500 406.25C451.05 445.93 414.77 459.49 414.77 500C414.77 531.7 452.45 541.55 500 550.68C620.06 573.74 630.45 581 750 564.39C812.88 555.66 862.74 551.53 864.86 500C869.21 394.34 808.62 376.56 762.93 250C751.19 217.47 759.66 181.82 750 181.82" stroke="rgba(1, 2, 14, 1)" stroke-width="2"></path><path d="M0 92.47C63.83 92.47 132.31 151.79 205.36 250C257.31 319.84 226.06 339.74 250 428.57C259.75 464.74 245.12 477.19 272.73 500C370.12 580.47 377.61 594.34 500 635.14C616.25 673.89 632.19 684.08 750 659.09C882.19 631.05 891.37 506.82 1000 529.07C1113.31 552.28 1163.38 625.51 1193.88 750C1221.07 860.98 1182.68 913.21 1115.38 1000C1085.74 1038.21 1057.69 1000 1000 1000C875 1000 875 1000 750 1000C682.57 1000 670.2 1027.93 615.13 1000C545.2 964.53 574.15 901.89 500 873.19C391.59 831.24 375.1 862.2 250 858.7C125.1 855.21 87 897.03 0 859.2C-38 842.68 0 804.6 0 750C0 625 0 625 0 500C0 375 0 375 0 250C0 171.24 -38.85 92.47 0 92.47" stroke="rgba(1, 2, 14, 1)" stroke-width="2"></path><path d="M500 250C462.1 250 447.37 103.65 447.37 0C447.37 -21.35 473.68 0 500 0C551.72 0 603.45 -34.57 603.45 0C603.45 90.43 540.14 250 500 250" stroke="rgba(1, 2, 14, 1)" stroke-width="2"></path><path d="M870.69 250C870.69 190 931.74 156.25 1000 156.25C1087.86 156.25 1182.93 185.03 1182.93 250C1182.93 339.05 1082.68 464.29 1000 464.29C926.56 464.29 870.69 344.02 870.69 250" stroke="rgba(1, 2, 14, 1)" stroke-width="2"></path><path d="M1250 148.15C1219.89 148.15 1189.39 53.73 1189.39 0C1189.39 -20.34 1219.7 0 1250 0C1279.85 0 1309.7 -20.15 1309.7 0C1309.7 53.92 1280.05 148.15 1250 148.15" stroke="rgba(1, 2, 14, 1)" stroke-width="2"></path><path d="M1461.54 250C1461.54 243.88 1484.47 240.57 1500 240.57C1503.7 240.57 1500 245.28 1500 250C1500 257.81 1505.26 265.63 1500 265.63C1486.03 265.63 1461.54 256.41 1461.54 250" stroke="rgba(1, 2, 14, 1)" stroke-width="2"></path><path d="M1328.57 750C1328.57 694.08 1444.48 638.89 1500 638.89C1530.2 638.89 1500 694.44 1500 750C1500 806.61 1530.45 863.21 1500 863.21C1444.74 863.21 1328.57 806.24 1328.57 750" stroke="rgba(1, 2, 14, 1)" stroke-width="2"></path><path d="M0 178.08C29.14 178.08 93.75 204.93 93.75 250C93.75 320.44 25.18 409.09 0 409.09C-21.69 409.09 0 329.54 0 250C0 214.04 -17.74 178.08 0 178.08" stroke="rgba(1, 2, 14, 1)" stroke-width="2"></path><path d="M978.45 250C978.45 240 988.62 234.38 1000 234.38C1014.64 234.38 1030.49 239.17 1030.49 250C1030.49 264.84 1013.78 285.71 1000 285.71C987.76 285.71 978.45 265.67 978.45 250" stroke="rgba(1, 2, 14, 1)" stroke-width="2"></path><path d="M0 620C83.66 603.91 121.97 676.42 250 701.92C371.97 726.21 375.39 706.98 500 719.59C612.89 731.02 725 734.26 725 750C725 765.77 613.02 778.3 500 782.61C375.52 787.36 374.92 766.93 250 768.12C124.92 769.31 108.79 795.25 0 787.36C-16.21 786.19 0 768.68 0 750C0 685 -41.34 627.95 0 620" stroke="rgba(1, 2, 14, 1)" stroke-width="2"></path><path d="M767.86 750C882.04 708.76 894.3 674.42 1000 674.42C1043.54 674.42 1066.33 709.86 1066.33 750C1066.33 798.43 1038.01 804.53 1000 851.56C936.99 929.53 944 952.67 864.29 1000C819 1026.89 807.14 1000 750 1000C723.68 1000 697.37 1021.08 697.37 1000C697.37 903.43 717.84 878.76 750 764.71C753.09 753.76 757.04 753.91 767.86 750" stroke="rgba(1, 2, 14, 1)" stroke-width="2"></path></g><defs><mask id="SvgjsMask1032"><rect width="1420" height="1000" fill="#ffffff"></rect></mask></defs></svg>